<svg width="100" height="100" viewBox="0 0 100 100" fill="none" xmlns="http://www.w3.org/2000/svg">
<path d="M47.75 3.03109C49.1423 2.22724 50.8577 2.22724 52.25 3.03109L89.5513 24.567C90.9436 25.3708 91.8013 26.8564 91.8013 28.4641V71.5359C91.8013 73.1436 90.9436 74.6292 89.5513 75.433L52.25 96.9689C50.8577 97.7728 49.1423 97.7728 47.75 96.9689L10.4487 75.433C9.05643 74.6292 8.19873 73.1436 8.19873 71.5359V28.4641C8.19873 26.8564 9.05643 25.3708 10.4487 24.567L47.75 3.03109Z" fill="#FFCD19" stroke="#B26128" stroke-width="3"/>
<path d="M43.1971 72.752V72.878C43.1971 76.322 41.9371 79.15 37.9331 81.124L38.5631 82.02C43.0991 79.766 44.3311 76.406 44.3311 72.752H43.1971ZM38.6191 72.752V73.69H43.8831V72.752H38.6191ZM43.0151 75.888L37.9891 76.224L38.1711 77.26L43.0151 76.784V75.888ZM46.3751 71.422V84.092H47.5511V71.422H46.3751ZM47.2291 76.56V77.526H49.5671V76.56H47.2291ZM60.388 71.436V84.092H61.508V71.436H60.388ZM56.216 76.252V77.274H58.316V76.252H56.216ZM57.938 71.744V83.434H59.044V71.744H57.938ZM50.812 73.032V73.984H56.594V73.032H50.812ZM50.7 80.984C52.324 80.984 54.97 80.928 56.944 80.55L56.86 79.696C54.942 79.948 52.198 80.004 50.56 80.004L50.7 80.984ZM51.848 73.648V80.27H52.912V73.648H51.848ZM54.48 73.648V80.27H55.544V73.648H54.48Z" fill="#24221B"/>
<path d="M29.3123 59.357C29.3123 62.493 37.2776 65.0349 47.1034 65.0349C56.9292 65.0349 64.8945 62.493 64.8945 59.357C64.8945 56.2209 56.9292 53.679 47.1034 53.679C37.2776 53.6786 29.3123 56.2209 29.3123 59.357Z" fill="#E26969"/>
<path d="M47.5624 65.9943C38.3807 65.9943 28.6217 63.668 28.6217 59.357C28.6217 55.046 38.3807 52.7196 47.5624 52.7196C56.744 52.7196 66.5031 55.0455 66.5031 59.357C66.5031 63.6684 56.7446 65.9943 47.5624 65.9943ZM47.5624 54.6381C37.252 54.6381 30.9209 57.3863 30.9209 59.3565C30.9209 61.3268 37.252 64.075 47.5624 64.075C57.8728 64.075 64.2039 61.3268 64.2039 59.3565C64.2039 57.3863 57.8728 54.6381 47.5624 54.6381Z" fill="#4C2F1B"/>
<path d="M64.4626 43.7197L47.7783 43.9674H30.851C30.851 43.9674 29.609 60.2803 47.7783 60.2803C65.9476 60.2803 64.4626 43.7197 64.4626 43.7197Z" fill="#FF7171"/>
<path d="M47.6724 61.2402C42.216 61.2402 37.8711 59.8323 34.7572 57.0559C29.693 52.5529 29.524 45.9129 29.5928 43.9848L29.5954 43.9C29.6382 43.4072 30.1436 43.0084 30.745 43.0084H47.6724L64.3364 42.7603C64.9805 42.7603 65.464 43.1412 65.5073 43.6466C65.5741 44.4959 66.0023 52.0814 60.4786 57.0572C57.3903 59.8328 53.0814 61.2402 47.6724 61.2402ZM31.8946 45.1689C31.9703 47.2093 32.5654 52.3252 36.4529 55.7551C39.1224 58.1211 42.9061 59.3208 47.699 59.3208C52.4304 59.3208 56.1603 58.128 58.7845 55.7764C62.6725 52.2764 63.2097 47.033 63.2603 44.9413L63.266 44.6975L47.7209 44.9273H31.8858L31.8946 45.1689Z" fill="#4C2F1B"/>
<path d="M30.635 44.2156C30.635 48.0481 38.2138 51.1555 47.5624 51.1555C56.911 51.1555 64.4897 48.0481 64.4897 44.2156C64.4897 40.3825 56.9115 37.2756 47.5624 37.2756C38.2138 37.2756 30.635 40.3825 30.635 44.2156Z" fill="#D6E6EA"/>
<path d="M30.635 44.2156C30.635 48.0481 38.2138 51.1555 47.5624 51.1555C56.911 51.1555 64.4897 48.0481 64.4897 44.2156C64.4897 40.3825 56.9115 37.2756 47.5624 37.2756C38.2138 37.2756 30.635 40.3825 30.635 44.2156Z" fill="#FCDCD6"/>
<path d="M47.2927 40.723C39.5173 40.723 34.0103 42.9762 31.8504 45.5224C32.0934 49.3302 38.3839 51.1555 47.5895 51.1555C56.0665 51.1555 62.0873 50.0742 63.3558 46.6943C62.0602 43.6745 55.9585 40.723 47.2927 40.723Z" fill="#724E3B"/>
<path d="M47.5624 52.1145C37.4257 52.1145 29.4854 48.645 29.4854 44.2156C29.4854 39.7861 37.4257 36.3162 47.5624 36.3162C57.6991 36.3162 65.6393 39.7861 65.6393 44.2156C65.6393 48.645 57.6991 52.1145 47.5624 52.1145ZM47.5624 38.2351C38.1246 38.2351 31.7846 41.3272 31.7846 44.2156C31.7846 47.0443 38.2644 50.1956 47.5624 50.1956C56.8604 50.1956 63.3396 47.0438 63.3396 44.2156C63.3401 41.3272 57.0002 38.2351 47.5624 38.2351Z" fill="#4C2F1B"/>
<path d="M36.8176 46.3561C36.8176 46.3561 43.567 45.8829 44.9435 45.6352C46.2934 45.387 48.6693 45.4323 50.208 45.387C51.7467 45.3422 56.6064 45.8602 56.6064 45.8602C56.6064 45.8602 51.5041 45.9277 51.2882 45.8602C51.0722 45.7928 45.8886 46.4235 45.8886 46.4235L36.8176 46.3561ZM37.5739 44.1028C37.5739 44.1028 41.2991 42.4356 42.6495 42.2101C43.9994 41.9624 46.3748 42.0072 47.914 41.9624C49.4527 41.9171 52.5578 42.2327 52.5578 42.2327C52.5578 42.2327 49.2101 42.503 48.9942 42.4356C48.7783 42.3681 44.3233 43.4046 44.3233 43.4046L37.5739 44.1028ZM43.216 49.0821C43.216 49.0821 45.0786 48.992 46.4285 48.7443C47.7784 48.4966 50.1542 48.5414 51.6929 48.4966C53.2317 48.4739 54.3927 48.2937 54.3927 48.2937C54.3927 48.2937 52.9077 48.8122 52.4487 48.9471C52.2328 49.0146 48.9123 49.4656 48.9123 49.4656L43.216 49.0821Z" fill="#9B6F5C"/>
<path d="M41.875 33.403C41.6862 33.403 41.4702 33.3356 41.308 33.2228C40.957 32.9525 40.9027 32.5015 41.2272 32.209C42.2797 31.2177 41.9292 30.4289 41.659 30.0685C41.5782 29.9557 41.4431 29.843 41.308 29.708C40.6602 29.0546 39.4183 27.8605 41.1192 25.9451C41.3894 25.6295 41.9292 25.562 42.3069 25.7875C42.685 26.0126 42.7659 26.4631 42.4957 26.7787C41.6048 27.7926 41.983 28.1535 42.6037 28.7616C42.7653 28.9192 42.9276 29.0772 43.0627 29.2575C43.4137 29.708 44.4125 31.3078 42.4957 33.1327C42.3611 33.3129 42.118 33.403 41.875 33.403Z" fill="#4C2F1B"/>
<path d="M44.5526 33.403C44.3638 33.403 44.1474 33.3356 43.9857 33.2228C43.6346 32.9525 43.5809 32.5019 43.9048 32.209C44.9579 31.2177 44.6069 30.4289 44.3367 30.0685C44.2558 29.9557 44.1208 29.8434 43.9857 29.708C43.3378 29.0546 42.0959 27.8601 43.7968 25.9451C44.067 25.6295 44.6069 25.562 44.9845 25.7875C45.3627 26.013 45.4435 26.4636 45.1733 26.7792C44.2825 27.793 44.6601 28.1535 45.2813 28.7621C45.443 28.9197 45.6052 29.0777 45.7403 29.2579C46.0913 29.7085 47.0902 31.3083 45.1733 33.1331C45.0382 33.3356 44.7952 33.403 44.5526 33.403Z" fill="#4C2F1B"/>
<path d="M54.4022 33.403C54.2133 33.403 53.9974 33.3356 53.8352 33.2228C53.4841 32.9525 53.4299 32.5015 53.7538 32.209C54.8069 31.2177 54.4559 30.4289 54.1857 30.0685C54.1048 29.9557 53.9698 29.843 53.8347 29.708C53.1868 29.0546 51.9449 27.8605 53.6458 25.9451C53.916 25.6295 54.4559 25.562 54.834 25.7875C55.2122 26.0126 55.293 26.4631 55.0229 26.7787C54.132 27.7926 54.5096 28.1535 55.1308 28.7616C55.2925 28.9192 55.4547 29.0772 55.5898 29.2575C55.9409 29.708 56.9397 31.3078 55.0229 33.1327C54.8878 33.3129 54.6452 33.403 54.4022 33.403Z" fill="#4C2F1B"/>
<path d="M47.8325 53.4535C46.3476 53.4988 45.187 54.5353 44.8089 55.4364C44.2148 56.856 45.2945 57.667 46.2396 57.667C46.8337 57.667 47.5352 56.856 47.2656 56.0899C46.8066 54.8727 49.0473 53.4083 47.8325 53.4535ZM47.8325 57.802C49.3175 57.7567 50.3701 56.7206 50.7483 55.8191C51.3424 54.3995 50.2627 53.5885 49.2362 53.5885C48.858 53.5885 48.0485 53.9938 48.291 55.1657C48.5612 56.4277 46.6177 57.8472 47.8325 57.802Z" fill="white"/>
</svg>
