<svg width="100" height="100" viewBox="0 0 100 100" fill="none" xmlns="http://www.w3.org/2000/svg">
<path d="M47.75 3.03109C49.1423 2.22724 50.8577 2.22724 52.25 3.03109L89.5513 24.567C90.9436 25.3708 91.8013 26.8564 91.8013 28.4641V71.5359C91.8013 73.1436 90.9436 74.6292 89.5513 75.433L52.25 96.9689C50.8577 97.7728 49.1423 97.7728 47.75 96.9689L10.4487 75.433C9.05643 74.6292 8.19873 73.1436 8.19873 71.5359V28.4641C8.19873 26.8564 9.05643 25.3708 10.4487 24.567L47.75 3.03109Z" fill="#FFCD19" stroke="#B26128" stroke-width="3"/>
<path d="M41.5656 73.436V86.12H42.7276V73.436H41.5656ZM33.1936 81.99V82.97H34.2156C36.7636 82.97 38.4156 82.9 40.3476 82.536L40.2216 81.556C38.3456 81.906 36.7216 81.99 34.2156 81.99H33.1936ZM33.1936 74.64V82.354H34.3416V75.606H39.1716V74.64H33.1936ZM54.5145 73.422V86.106H55.6625V73.422H54.5145ZM51.7845 78.042V78.994H54.8505V78.042H51.7845ZM48.4665 75.242V77.132C48.4665 79.386 46.9685 81.78 45.1485 82.676L45.8345 83.6C47.8365 82.564 49.4045 79.862 49.4045 77.132V75.242H48.4665ZM48.7045 75.242V77.132C48.7045 79.736 50.2445 82.34 52.2465 83.334L52.9325 82.424C51.0985 81.556 49.6285 79.246 49.6285 77.132V75.242H48.7045ZM45.6105 74.724V75.69H52.4985V74.724H45.6105ZM59.6094 80.254V81.192H68.3034V80.254H59.6094ZM58.1394 83.502V84.468H69.6054V83.502H58.1394ZM59.6094 74.514V80.548H60.7854V75.466H68.1634V74.514H59.6094ZM60.4074 77.342V78.266H67.8974V77.342H60.4074Z" fill="black"/>
<g clip-path="url(#clip0_135_606)">
<path d="M42.2442 44.4423L51.0243 62.7656L57.2059 43.7088L42.2442 44.4423Z" fill="#EA9B65"/>
<path d="M41.958 44.8497L51.06 63.9071L57.5185 44.0867L41.958 44.8497Z" fill="#EA9B65"/>
<path d="M47.2194 57.4509C47.1063 57.4564 46.9921 57.4397 46.8763 57.401C46.5578 57.2609 46.4294 56.9552 46.6141 56.6789L52.7248 47.7374C52.9106 47.483 53.3308 47.3734 53.6493 47.5139C53.9679 47.6541 54.0968 47.9597 53.9115 48.236L47.8003 57.1552C47.6664 57.3175 47.4456 57.4398 47.2194 57.4509ZM44.6489 55.3274C44.5358 55.3329 44.4216 55.3161 44.3063 55.277C43.9873 55.1369 43.8589 54.8313 44.0442 54.555L50.1548 45.6134C50.3407 45.3595 50.7608 45.2494 51.0794 45.39C51.3984 45.5301 51.5268 45.8357 51.3415 46.112L45.2309 55.0536C45.1243 55.1926 44.903 55.3149 44.6489 55.3274Z" fill="#B77142"/>
<path d="M54.4889 60.091C54.2774 60.1014 54.0616 60.0229 53.9212 59.8516L43.3275 46.3612C43.1308 46.126 43.2199 45.7873 43.503 45.6177C43.7861 45.4481 44.1866 45.5175 44.3838 45.7527L54.977 59.2431C55.1736 59.4787 55.0845 59.817 54.8015 59.9866C54.6993 60.0583 54.5944 60.0859 54.4889 60.091ZM54.7637 56.5139C54.5523 56.5243 54.337 56.4457 54.196 56.2741L45.1549 44.7347C44.9582 44.4995 45.0473 44.1608 45.3304 43.9911C45.6135 43.8215 46.014 43.8905 46.2112 44.1261L55.2786 55.6642C55.4758 55.8994 55.3861 56.2381 55.1036 56.4077C55.0003 56.4799 54.8692 56.5087 54.7637 56.5139ZM52.4496 61.1712C52.2381 61.1816 52.0223 61.1031 51.8819 60.9314L43.8869 50.7439C43.6902 50.5087 43.7793 50.17 44.0624 50.0003C44.3455 49.8307 44.7465 49.9001 44.9432 50.1353L52.9376 60.3228C53.1343 60.558 53.0452 60.8967 52.7621 61.0664C52.6599 61.1385 52.5556 61.166 52.4496 61.1712Z" fill="#B77142"/>
<path d="M48.6728 61.0771C48.5597 61.0827 48.4455 61.0659 48.3303 61.0272C48.0117 60.8871 47.8834 60.5814 48.0681 60.3051L55.1319 49.9804C55.3177 49.726 55.7379 49.6163 56.0564 49.7569C56.3755 49.897 56.5033 50.2027 56.3186 50.479L49.2548 60.8037C49.1209 60.9656 48.8991 61.066 48.6728 61.0771Z" fill="#B77142"/>
<path d="M51.1432 65.2025C49.7947 65.2686 48.5779 64.6583 48.1149 63.6836L39.3348 45.3591C38.9876 44.6222 39.1108 43.7948 39.6651 43.1467C40.1937 42.4792 41.1112 42.0556 42.1242 42.0059L57.1143 41.2709C58.8092 41.1878 60.2409 42.2033 60.3062 43.5348C60.3201 43.8194 60.2813 44.0894 60.1905 44.3365L54.0305 63.3097C53.6972 64.3527 52.559 65.1116 51.1973 65.1999L51.1432 65.2025ZM51.0466 63.533L57.5875 43.4603L41.8292 44.2329L51.0466 63.533Z" fill="#4C2F1B"/>
<path d="M53.2061 48.2925C51.3396 48.3841 50.5354 47.5995 50.2005 47.1258C49.8034 46.5442 49.7718 45.8994 49.7489 45.4328L49.7434 45.3216L48.6113 45.3548C48.5545 45.3576 48.4698 45.3617 48.4124 45.3421C47.7714 45.5741 46.5977 45.9212 45.4667 45.9767C44.3635 46.0308 43.0745 45.7596 42.2129 45.5347L42.1282 45.5388C40.5398 45.5276 39.3193 44.9192 38.8146 43.8751C37.8734 42.028 39.5518 39.2508 40.2611 38.6812C40.8333 38.2078 41.7786 37.8271 43.2529 37.2428C43.725 37.0415 44.4763 36.7594 44.9206 36.5599C45.1588 33.3184 48.6026 30.6995 53.0995 30.479C59.4635 30.167 62.2927 33.5248 62.8076 36.5069C63.3606 39.6872 61.3973 43.5919 56.7369 44.5334C56.5402 44.5654 56.3151 44.5988 56.061 44.6332C56.0042 44.636 55.9479 44.6388 55.8643 44.6652L55.8894 45.1765C55.9429 45.6863 56.0246 46.7736 55.1284 47.5748C54.6388 48.0218 53.9699 48.2551 53.2061 48.2925Z" fill="#FFF3B5"/>
<path d="M53.2602 49.3962C51.3576 49.4895 49.7897 48.8581 48.9589 47.6643C48.746 47.3426 48.6235 47.0108 48.541 46.7584L48.4623 46.5161L48.1605 46.6054C47.2448 46.8766 46.3327 47.0409 45.5208 47.0807C44.1428 47.1483 42.7101 46.8382 41.9793 46.6472L41.9411 46.637L41.9005 46.6356C39.8202 46.5681 38.2149 45.7203 37.4961 44.309C36.2413 41.83 38.4018 38.6058 39.2593 37.9205C40.0442 37.2835 41.2472 36.8088 42.6394 36.2595C42.7541 36.2083 42.8718 36.1629 42.9965 36.1142C43.1481 36.0556 43.3082 35.9926 43.4599 35.9245L43.5858 35.8676L43.6083 35.7555C44.3056 32.2377 48.1748 29.6147 53.0159 29.3773C59.805 29.0444 63.5288 32.6291 64.2076 36.329C64.9062 40.5025 62.0999 44.3595 57.534 45.4965L57.3284 45.5479L57.324 45.7167C57.297 46.7731 56.9091 47.642 56.1723 48.299C55.4462 48.9504 54.4125 49.3397 53.2602 49.3962ZM51.0236 44.2189C51.1249 44.3628 51.1391 44.8883 51.145 45.12L51.1526 45.342C51.1735 45.7786 51.1956 46.2311 51.4442 46.5971C51.7488 47.0456 52.3236 47.2523 53.1531 47.2117C53.5377 47.1928 53.8477 47.0804 54.0739 46.8782C54.5623 46.4408 54.5001 45.7296 54.4623 45.3046L54.4507 45.1584L54.393 43.9805C54.383 43.7775 55.3649 43.6407 55.7844 43.5827C56.0205 43.5496 56.2381 43.5191 56.4034 43.4839C60.2671 42.7033 61.8594 39.3993 61.394 36.6872C60.9615 34.1676 58.5357 31.3192 53.1236 31.5846C51.103 31.6836 49.2216 32.377 47.9621 33.4874C46.8327 34.4825 46.2618 35.7635 46.3534 37.095C46.2721 37.3258 44.7707 37.9149 43.8738 38.2674C42.7787 38.6972 41.7442 39.1033 41.2914 39.4637C40.8436 39.8144 39.4723 42.0864 40.1452 43.4558C40.3631 43.8999 40.9008 44.4333 42.2211 44.4499C42.387 44.4607 42.5617 44.4715 42.7272 44.5185C42.8817 44.5643 44.3011 44.9719 45.4426 44.9159C46.5316 44.8625 47.7321 44.4375 47.9613 44.3531C48.0077 44.3388 48.173 44.2924 48.3594 44.2832C48.4255 44.28 48.4823 44.2772 48.5233 44.2859L48.5648 44.2947L51.0236 44.2189Z" fill="#4C2F1B"/>
<path d="M51.3149 38.0506C47.3551 38.2447 43.9787 35.8711 43.8251 32.738C43.6715 29.6052 46.7716 26.9141 50.7593 26.7186C54.7191 26.5244 58.096 28.898 58.2496 32.0307C58.4027 35.1639 55.3026 37.8551 51.3149 38.0506Z" fill="#FF5F5F"/>
<path d="M51.3692 39.1542C46.6335 39.3864 42.6319 36.5383 42.4489 32.8054C42.266 29.0851 45.9703 25.8695 50.7065 25.6373C55.4427 25.4051 59.4443 28.2532 59.6273 31.986C59.8097 35.7064 56.1049 38.922 51.3692 39.1542ZM50.8147 27.8445C47.6122 28.0015 45.1068 30.1657 45.2296 32.6691C45.3529 35.185 48.0585 37.104 51.261 36.9469C54.4635 36.7899 56.9688 34.6254 56.8461 32.1219C56.7228 29.6065 54.0166 27.6875 50.8147 27.8445Z" fill="#4C2F1B"/>
<path d="M44.8396 33.7799C44.8487 33.964 45.0459 34.1037 45.2801 34.0922C45.5143 34.0807 45.697 33.922 45.688 33.7383C45.679 33.5541 45.4817 33.4141 45.2475 33.4255C45.0133 33.437 44.8306 33.5962 44.8396 33.7799Z" fill="#FF8585"/>
<path d="M47.2064 31.7486C47.1217 31.7528 47.0359 31.7346 46.9501 31.7164C46.6048 31.6219 46.4202 31.3194 46.5486 31.0455C46.9586 30.1566 48.6068 28.4945 52.0736 28.6589C52.4435 28.6851 52.7113 28.9396 52.697 29.2299C52.6549 29.5215 52.3248 29.7382 51.956 29.7339C48.7164 29.5808 47.866 31.3152 47.8124 31.385C47.7386 31.6111 47.4894 31.7347 47.2064 31.7486Z" fill="#FFF3B5"/>
<path d="M43.486 42.0205C39.47 42.2174 36.0624 39.801 35.9077 36.6455C35.753 33.49 38.9078 30.7519 42.9239 30.555C46.94 30.3581 50.3475 32.7745 50.5022 35.9299C50.6569 39.0854 47.5021 41.8235 43.486 42.0205Z" fill="#FFED69"/>
<path d="M43.5401 43.1239C38.7416 43.3592 34.6878 40.4839 34.5029 36.7142C34.3181 32.9445 38.0713 29.6869 42.8698 29.4516C47.6678 29.2164 51.7216 32.0916 51.9065 35.8614C52.0913 39.6311 48.3381 42.8887 43.5401 43.1239ZM42.978 31.6589C39.7291 31.8182 37.1874 34.0241 37.3126 36.5769C37.4377 39.1297 40.1825 41.0764 43.4319 40.9171C46.6814 40.7578 49.2225 38.5514 49.0974 35.9987C48.9722 33.4459 46.2269 31.4996 42.978 31.6589Z" fill="#4C2F1B"/>
<path d="M39.272 35.8794C39.1874 35.8836 39.101 35.8654 39.0152 35.8473C38.6699 35.7527 38.4853 35.4503 38.6137 35.1763C39.0237 34.2875 40.6719 32.6254 44.1387 32.7897C44.5087 32.8163 44.7764 33.0704 44.7621 33.3607C44.7194 33.6524 44.3899 33.869 44.0217 33.8647C40.7821 33.7116 39.9316 35.4461 39.8781 35.5158C39.7758 35.7433 39.5267 35.8669 39.272 35.8794Z" fill="#FFF3B5"/>
<path d="M45.1494 33.7423C45.1639 34.0368 45.4794 34.261 45.8548 34.2426C46.2296 34.2242 46.5217 33.9706 46.5072 33.6757C46.4928 33.3813 46.1773 33.1575 45.8025 33.1759C45.4276 33.1942 45.135 33.4483 45.1494 33.7423Z" fill="#FFF3B5"/>
</g>
<defs>
<clipPath id="clip0_135_606">
<rect width="29.7409" height="39.5392" fill="white" transform="translate(34 26.4564) rotate(-2.80692)"/>
</clipPath>
</defs>
</svg>
